# xmcd
#
# Track frame offsets: 
#        150
#        18519
#        39554
#        56784
#        75642
#        98074
#        119447
#        144878
#        165644
#
# Disc length: 2476 seconds
#
# Revision: 3
# Processed by: cddbd v1.5.2PL0 Copyright (c) Steve Scherf et al.
# Submitted via: ExactAudioCopyFreeDBPlugin 1.0
#
DISCID=6e09aa09
DTITLE=Voltaire - Hate Lives in a Small Town
DYEAR=2010
DGENRE=Country Rock
TTITLE0=Hate Lives in a Small Town
TTITLE1=All Women Are Crazy
TTITLE2=Stubborn as a Mule
TTITLE3=You Married a Fool
TTITLE4=When You're Dead
TTITLE5=The Churchyard
TTITLE6=Fear and Anguish
TTITLE7=It's Normal for a Man
TTITLE8=On the Road
EXTD=YEAR: 2010
EXTT0=
EXTT1=
EXTT2=
EXTT3=
EXTT4=
EXTT5=
EXTT6=
EXTT7=
EXTT8=
PLAYORDER=
